<mxfile host="app.diagrams.net" modified="2024-02-01T21:33:12.876Z" agent="Mozilla/5.0 (Windows NT 10.0; Win64; x64) AppleWebKit/537.36 (KHTML, like Gecko) Chrome/121.0.0.0 Safari/537.36" etag="OGcCeLnEdaSXqIVQIrsR" version="23.1.1" type="device">
  <diagram id="vNLxLb-PJYF013BAF8w1" name="Page-1">
    <mxGraphModel dx="3185" dy="1248" grid="1" gridSize="10" guides="1" tooltips="1" connect="1" arrows="1" fold="1" page="1" pageScale="1" pageWidth="827" pageHeight="1169" math="0" shadow="0">
      <root>
        <mxCell id="0" />
        <mxCell id="1" parent="0" />
        <mxCell id="5ek0-Ek1z--KeOMF1dmO-1" value="" style="rounded=0;whiteSpace=wrap;html=1;" parent="1" vertex="1">
          <mxGeometry x="-500" y="50" width="1300" height="810" as="geometry" />
        </mxCell>
        <mxCell id="vcYzzI4dRrPzJKDC5KhZ-1" value="" style="shape=ellipse;html=1;fillColor=#000000;fontSize=18;fontColor=#ffffff;" parent="1" vertex="1">
          <mxGeometry x="399" y="70" width="40" height="40" as="geometry" />
        </mxCell>
        <mxCell id="vcYzzI4dRrPzJKDC5KhZ-2" value="" style="ellipse;html=1;shape=endState;fillColor=#000000;strokeColor=#000000;" parent="1" vertex="1">
          <mxGeometry x="-160" y="645" width="50" height="50" as="geometry" />
        </mxCell>
        <mxCell id="vcYzzI4dRrPzJKDC5KhZ-4" value="" style="endArrow=open;html=1;rounded=0;exitX=0.5;exitY=1;exitDx=0;exitDy=0;entryX=0.5;entryY=0;entryDx=0;entryDy=0;endFill=0;" parent="1" source="vcYzzI4dRrPzJKDC5KhZ-1" target="vcYzzI4dRrPzJKDC5KhZ-7" edge="1">
          <mxGeometry width="50" height="50" relative="1" as="geometry">
            <mxPoint x="540" y="410" as="sourcePoint" />
            <mxPoint x="420" y="150" as="targetPoint" />
          </mxGeometry>
        </mxCell>
        <mxCell id="vcYzzI4dRrPzJKDC5KhZ-5" value="" style="endArrow=open;html=1;rounded=0;entryX=0.5;entryY=0;entryDx=0;entryDy=0;endFill=0;" parent="1" source="vcYzzI4dRrPzJKDC5KhZ-24" target="vcYzzI4dRrPzJKDC5KhZ-6" edge="1">
          <mxGeometry width="50" height="50" relative="1" as="geometry">
            <mxPoint x="150" y="280" as="sourcePoint" />
            <mxPoint x="160" y="370" as="targetPoint" />
          </mxGeometry>
        </mxCell>
        <mxCell id="vcYzzI4dRrPzJKDC5KhZ-6" value="Open File navigation menu" style="rounded=1;whiteSpace=wrap;html=1;fillColor=#dae8fc;strokeColor=#6c8ebf;" parent="1" vertex="1">
          <mxGeometry x="80" y="427.5" width="120" height="60" as="geometry" />
        </mxCell>
        <mxCell id="vcYzzI4dRrPzJKDC5KhZ-7" value="Open Jabberpoint" style="rounded=1;whiteSpace=wrap;html=1;fillColor=#dae8fc;strokeColor=#6c8ebf;" parent="1" vertex="1">
          <mxGeometry x="359" y="160" width="120" height="60" as="geometry" />
        </mxCell>
        <mxCell id="vcYzzI4dRrPzJKDC5KhZ-8" value="" style="endArrow=open;html=1;rounded=0;exitX=0.5;exitY=1;exitDx=0;exitDy=0;entryX=0.214;entryY=0.499;entryDx=0;entryDy=0;entryPerimeter=0;endFill=0;" parent="1" source="vcYzzI4dRrPzJKDC5KhZ-7" target="vcYzzI4dRrPzJKDC5KhZ-24" edge="1">
          <mxGeometry width="50" height="50" relative="1" as="geometry">
            <mxPoint x="350" y="390" as="sourcePoint" />
            <mxPoint x="419" y="260" as="targetPoint" />
          </mxGeometry>
        </mxCell>
        <mxCell id="vcYzzI4dRrPzJKDC5KhZ-9" value="" style="endArrow=open;html=1;rounded=0;entryX=0.5;entryY=0;entryDx=0;entryDy=0;exitX=0.786;exitY=0.499;exitDx=0;exitDy=0;exitPerimeter=0;endFill=0;" parent="1" source="vcYzzI4dRrPzJKDC5KhZ-24" target="vcYzzI4dRrPzJKDC5KhZ-10" edge="1">
          <mxGeometry width="50" height="50" relative="1" as="geometry">
            <mxPoint x="419" y="330" as="sourcePoint" />
            <mxPoint x="439" y="430" as="targetPoint" />
          </mxGeometry>
        </mxCell>
        <mxCell id="vcYzzI4dRrPzJKDC5KhZ-10" value="Open View navigation menu" style="rounded=1;whiteSpace=wrap;html=1;fillColor=#dae8fc;strokeColor=#6c8ebf;" parent="1" vertex="1">
          <mxGeometry x="359" y="430" width="120" height="60" as="geometry" />
        </mxCell>
        <mxCell id="vcYzzI4dRrPzJKDC5KhZ-11" value="" style="endArrow=open;html=1;rounded=0;entryX=0.5;entryY=0;entryDx=0;entryDy=0;exitX=0.9;exitY=0.016;exitDx=0;exitDy=0;exitPerimeter=0;endFill=0;" parent="1" source="vcYzzI4dRrPzJKDC5KhZ-24" target="vcYzzI4dRrPzJKDC5KhZ-12" edge="1">
          <mxGeometry width="50" height="50" relative="1" as="geometry">
            <mxPoint x="479" y="295" as="sourcePoint" />
            <mxPoint x="720" y="370" as="targetPoint" />
          </mxGeometry>
        </mxCell>
        <mxCell id="vcYzzI4dRrPzJKDC5KhZ-12" value="Open Help navigation&amp;nbsp;" style="rounded=1;whiteSpace=wrap;html=1;fillColor=#dae8fc;strokeColor=#6c8ebf;" parent="1" vertex="1">
          <mxGeometry x="640" y="430" width="120" height="60" as="geometry" />
        </mxCell>
        <mxCell id="vcYzzI4dRrPzJKDC5KhZ-16" value="" style="endArrow=open;html=1;rounded=0;exitX=0;exitY=0.5;exitDx=0;exitDy=0;entryX=1;entryY=0.5;entryDx=0;entryDy=0;endFill=0;" parent="1" source="vcYzzI4dRrPzJKDC5KhZ-6" target="vcYzzI4dRrPzJKDC5KhZ-17" edge="1">
          <mxGeometry width="50" height="50" relative="1" as="geometry">
            <mxPoint x="90" y="650" as="sourcePoint" />
            <mxPoint x="20" y="470" as="targetPoint" />
          </mxGeometry>
        </mxCell>
        <mxCell id="vcYzzI4dRrPzJKDC5KhZ-17" value="" style="rhombus;whiteSpace=wrap;html=1;fillColor=#dae8fc;strokeColor=#6c8ebf;" parent="1" vertex="1">
          <mxGeometry x="-20" y="430" width="80" height="55" as="geometry" />
        </mxCell>
        <mxCell id="vcYzzI4dRrPzJKDC5KhZ-19" value="" style="endArrow=open;html=1;rounded=0;exitX=0;exitY=0.5;exitDx=0;exitDy=0;entryX=1;entryY=0.5;entryDx=0;entryDy=0;endFill=0;" parent="1" source="vcYzzI4dRrPzJKDC5KhZ-17" target="vcYzzI4dRrPzJKDC5KhZ-26" edge="1">
          <mxGeometry width="50" height="50" relative="1" as="geometry">
            <mxPoint x="230" y="610" as="sourcePoint" />
            <mxPoint x="210" y="580" as="targetPoint" />
          </mxGeometry>
        </mxCell>
        <mxCell id="vcYzzI4dRrPzJKDC5KhZ-21" value="Open presentation" style="rounded=1;whiteSpace=wrap;html=1;fillColor=#dae8fc;strokeColor=#6c8ebf;" parent="1" vertex="1">
          <mxGeometry x="-190" y="321.25" width="120" height="60" as="geometry" />
        </mxCell>
        <mxCell id="vcYzzI4dRrPzJKDC5KhZ-22" value="New presentation" style="rounded=1;whiteSpace=wrap;html=1;fillColor=#dae8fc;strokeColor=#6c8ebf;" parent="1" vertex="1">
          <mxGeometry x="-190" y="393.75" width="120" height="60" as="geometry" />
        </mxCell>
        <mxCell id="vcYzzI4dRrPzJKDC5KhZ-24" value="" style="html=1;points=[];perimeter=orthogonalPerimeter;fillColor=#000000;strokeColor=none;rotation=90;" parent="1" vertex="1">
          <mxGeometry x="415" y="-25" width="5" height="580" as="geometry" />
        </mxCell>
        <mxCell id="vcYzzI4dRrPzJKDC5KhZ-25" value="Save presentation" style="rounded=1;whiteSpace=wrap;html=1;fillColor=#dae8fc;strokeColor=#6c8ebf;" parent="1" vertex="1">
          <mxGeometry x="-190" y="463.75" width="120" height="60" as="geometry" />
        </mxCell>
        <mxCell id="vcYzzI4dRrPzJKDC5KhZ-26" value="Exit program" style="rounded=1;whiteSpace=wrap;html=1;fillColor=#dae8fc;strokeColor=#6c8ebf;" parent="1" vertex="1">
          <mxGeometry x="-190" y="533.75" width="120" height="60" as="geometry" />
        </mxCell>
        <mxCell id="vcYzzI4dRrPzJKDC5KhZ-29" value="" style="endArrow=open;html=1;rounded=0;exitX=0;exitY=0.5;exitDx=0;exitDy=0;entryX=0.996;entryY=0.445;entryDx=0;entryDy=0;entryPerimeter=0;endFill=0;" parent="1" source="vcYzzI4dRrPzJKDC5KhZ-17" target="vcYzzI4dRrPzJKDC5KhZ-25" edge="1">
          <mxGeometry width="50" height="50" relative="1" as="geometry">
            <mxPoint x="80" y="610" as="sourcePoint" />
            <mxPoint x="130" y="560" as="targetPoint" />
          </mxGeometry>
        </mxCell>
        <mxCell id="vcYzzI4dRrPzJKDC5KhZ-30" value="" style="endArrow=open;html=1;rounded=0;exitX=-0.004;exitY=0.517;exitDx=0;exitDy=0;exitPerimeter=0;entryX=1;entryY=0.5;entryDx=0;entryDy=0;endFill=0;" parent="1" source="vcYzzI4dRrPzJKDC5KhZ-17" target="vcYzzI4dRrPzJKDC5KhZ-22" edge="1">
          <mxGeometry width="50" height="50" relative="1" as="geometry">
            <mxPoint x="-90" y="530" as="sourcePoint" />
            <mxPoint x="30" y="340" as="targetPoint" />
          </mxGeometry>
        </mxCell>
        <mxCell id="vcYzzI4dRrPzJKDC5KhZ-31" value="" style="endArrow=open;html=1;rounded=0;entryX=1.011;entryY=0.436;entryDx=0;entryDy=0;entryPerimeter=0;exitX=0;exitY=0.5;exitDx=0;exitDy=0;endFill=0;" parent="1" source="vcYzzI4dRrPzJKDC5KhZ-17" target="vcYzzI4dRrPzJKDC5KhZ-21" edge="1">
          <mxGeometry width="50" height="50" relative="1" as="geometry">
            <mxPoint x="-20" y="444" as="sourcePoint" />
            <mxPoint x="-50" y="500" as="targetPoint" />
          </mxGeometry>
        </mxCell>
        <mxCell id="vcYzzI4dRrPzJKDC5KhZ-32" value="" style="html=1;points=[];perimeter=orthogonalPerimeter;fillColor=#000000;strokeColor=none;" parent="1" vertex="1">
          <mxGeometry x="-360" y="350" width="5" height="200" as="geometry" />
        </mxCell>
        <mxCell id="vcYzzI4dRrPzJKDC5KhZ-33" value="" style="endArrow=classic;html=1;rounded=0;exitX=0.5;exitY=0;exitDx=0;exitDy=0;entryX=1;entryY=0.5;entryDx=0;entryDy=0;" parent="1" source="vcYzzI4dRrPzJKDC5KhZ-21" target="5ek0-Ek1z--KeOMF1dmO-3" edge="1">
          <mxGeometry width="50" height="50" relative="1" as="geometry">
            <mxPoint x="-260" y="400" as="sourcePoint" />
            <mxPoint x="-210" y="350" as="targetPoint" />
          </mxGeometry>
        </mxCell>
        <mxCell id="vcYzzI4dRrPzJKDC5KhZ-34" value="" style="endArrow=open;html=1;rounded=0;exitX=0;exitY=0.5;exitDx=0;exitDy=0;entryX=0.978;entryY=0.366;entryDx=0;entryDy=0;entryPerimeter=0;endFill=0;" parent="1" source="vcYzzI4dRrPzJKDC5KhZ-22" target="vcYzzI4dRrPzJKDC5KhZ-32" edge="1">
          <mxGeometry width="50" height="50" relative="1" as="geometry">
            <mxPoint x="-200" y="530" as="sourcePoint" />
            <mxPoint x="-217" y="460" as="targetPoint" />
          </mxGeometry>
        </mxCell>
        <mxCell id="vcYzzI4dRrPzJKDC5KhZ-35" value="" style="endArrow=open;html=1;rounded=0;exitX=0;exitY=0.5;exitDx=0;exitDy=0;endFill=0;" parent="1" source="vcYzzI4dRrPzJKDC5KhZ-25" target="vcYzzI4dRrPzJKDC5KhZ-32" edge="1">
          <mxGeometry width="50" height="50" relative="1" as="geometry">
            <mxPoint x="-270" y="560" as="sourcePoint" />
            <mxPoint x="-220" y="510" as="targetPoint" />
          </mxGeometry>
        </mxCell>
        <mxCell id="vcYzzI4dRrPzJKDC5KhZ-41" value="" style="endArrow=open;html=1;rounded=0;edgeStyle=orthogonalEdgeStyle;exitX=0.337;exitY=0.549;exitDx=0;exitDy=0;exitPerimeter=0;entryX=0.342;entryY=0.897;entryDx=0;entryDy=0;entryPerimeter=0;endFill=0;" parent="1" source="vcYzzI4dRrPzJKDC5KhZ-32" target="vcYzzI4dRrPzJKDC5KhZ-24" edge="1">
          <mxGeometry width="50" height="50" relative="1" as="geometry">
            <mxPoint x="-230" y="469" as="sourcePoint" />
            <mxPoint x="200" y="190" as="targetPoint" />
            <Array as="points">
              <mxPoint x="-380" y="460" />
              <mxPoint x="-380" y="190" />
              <mxPoint x="187" y="190" />
              <mxPoint x="187" y="264" />
            </Array>
          </mxGeometry>
        </mxCell>
        <mxCell id="vcYzzI4dRrPzJKDC5KhZ-43" value="Next slide" style="rounded=1;whiteSpace=wrap;html=1;fillColor=#dae8fc;strokeColor=#6c8ebf;" parent="1" vertex="1">
          <mxGeometry x="230" y="585" width="120" height="60" as="geometry" />
        </mxCell>
        <mxCell id="vcYzzI4dRrPzJKDC5KhZ-44" value="Previous slide" style="rounded=1;whiteSpace=wrap;html=1;fillColor=#dae8fc;strokeColor=#6c8ebf;" parent="1" vertex="1">
          <mxGeometry x="490" y="585" width="120" height="60" as="geometry" />
        </mxCell>
        <mxCell id="vcYzzI4dRrPzJKDC5KhZ-45" value="Go to slide" style="rounded=1;whiteSpace=wrap;html=1;fillColor=#dae8fc;strokeColor=#6c8ebf;" parent="1" vertex="1">
          <mxGeometry x="359" y="585" width="120" height="60" as="geometry" />
        </mxCell>
        <mxCell id="vcYzzI4dRrPzJKDC5KhZ-46" value="" style="endArrow=classic;html=1;rounded=0;exitX=0.5;exitY=1;exitDx=0;exitDy=0;" parent="1" source="vcYzzI4dRrPzJKDC5KhZ-10" target="vcYzzI4dRrPzJKDC5KhZ-47" edge="1">
          <mxGeometry width="50" height="50" relative="1" as="geometry">
            <mxPoint x="400" y="660" as="sourcePoint" />
            <mxPoint x="370" y="620" as="targetPoint" />
          </mxGeometry>
        </mxCell>
        <mxCell id="vcYzzI4dRrPzJKDC5KhZ-47" value="" style="rhombus;whiteSpace=wrap;html=1;fillColor=#dae8fc;strokeColor=#6c8ebf;" parent="1" vertex="1">
          <mxGeometry x="380" y="510" width="80" height="55" as="geometry" />
        </mxCell>
        <mxCell id="vcYzzI4dRrPzJKDC5KhZ-48" value="" style="endArrow=open;html=1;rounded=0;exitX=1;exitY=0.5;exitDx=0;exitDy=0;entryX=0.46;entryY=-0.005;entryDx=0;entryDy=0;entryPerimeter=0;endFill=0;" parent="1" source="vcYzzI4dRrPzJKDC5KhZ-47" target="vcYzzI4dRrPzJKDC5KhZ-44" edge="1">
          <mxGeometry width="50" height="50" relative="1" as="geometry">
            <mxPoint x="500" y="580" as="sourcePoint" />
            <mxPoint x="550" y="530" as="targetPoint" />
          </mxGeometry>
        </mxCell>
        <mxCell id="vcYzzI4dRrPzJKDC5KhZ-49" value="" style="endArrow=open;html=1;rounded=0;exitX=0.5;exitY=1;exitDx=0;exitDy=0;endFill=0;" parent="1" source="vcYzzI4dRrPzJKDC5KhZ-47" target="vcYzzI4dRrPzJKDC5KhZ-45" edge="1">
          <mxGeometry width="50" height="50" relative="1" as="geometry">
            <mxPoint x="180" y="590" as="sourcePoint" />
            <mxPoint x="230" y="540" as="targetPoint" />
          </mxGeometry>
        </mxCell>
        <mxCell id="vcYzzI4dRrPzJKDC5KhZ-50" value="" style="endArrow=open;html=1;rounded=0;exitX=0;exitY=0.5;exitDx=0;exitDy=0;entryX=0.474;entryY=-0.005;entryDx=0;entryDy=0;entryPerimeter=0;endFill=0;" parent="1" source="vcYzzI4dRrPzJKDC5KhZ-47" target="vcYzzI4dRrPzJKDC5KhZ-43" edge="1">
          <mxGeometry width="50" height="50" relative="1" as="geometry">
            <mxPoint x="200" y="520" as="sourcePoint" />
            <mxPoint x="250" y="470" as="targetPoint" />
          </mxGeometry>
        </mxCell>
        <mxCell id="vcYzzI4dRrPzJKDC5KhZ-52" value="" style="html=1;points=[];perimeter=orthogonalPerimeter;fillColor=#000000;strokeColor=none;rotation=90;" parent="1" vertex="1">
          <mxGeometry x="417.5" y="485" width="5" height="390" as="geometry" />
        </mxCell>
        <mxCell id="vcYzzI4dRrPzJKDC5KhZ-53" value="" style="endArrow=open;html=1;rounded=0;exitX=0.451;exitY=1.024;exitDx=0;exitDy=0;exitPerimeter=0;endFill=0;" parent="1" source="vcYzzI4dRrPzJKDC5KhZ-43" target="vcYzzI4dRrPzJKDC5KhZ-52" edge="1">
          <mxGeometry width="50" height="50" relative="1" as="geometry">
            <mxPoint x="380" y="770" as="sourcePoint" />
            <mxPoint x="430" y="720" as="targetPoint" />
          </mxGeometry>
        </mxCell>
        <mxCell id="vcYzzI4dRrPzJKDC5KhZ-54" value="" style="endArrow=open;html=1;rounded=0;exitX=0.5;exitY=1;exitDx=0;exitDy=0;entryX=-0.271;entryY=0.503;entryDx=0;entryDy=0;entryPerimeter=0;endFill=0;" parent="1" source="vcYzzI4dRrPzJKDC5KhZ-45" target="vcYzzI4dRrPzJKDC5KhZ-52" edge="1">
          <mxGeometry width="50" height="50" relative="1" as="geometry">
            <mxPoint x="410" y="740" as="sourcePoint" />
            <mxPoint x="460" y="690" as="targetPoint" />
          </mxGeometry>
        </mxCell>
        <mxCell id="vcYzzI4dRrPzJKDC5KhZ-55" value="" style="endArrow=open;html=1;rounded=0;exitX=0.47;exitY=1.014;exitDx=0;exitDy=0;exitPerimeter=0;entryX=0.071;entryY=0.176;entryDx=0;entryDy=0;entryPerimeter=0;endFill=0;" parent="1" source="vcYzzI4dRrPzJKDC5KhZ-44" target="vcYzzI4dRrPzJKDC5KhZ-52" edge="1">
          <mxGeometry width="50" height="50" relative="1" as="geometry">
            <mxPoint x="600" y="780" as="sourcePoint" />
            <mxPoint x="650" y="730" as="targetPoint" />
          </mxGeometry>
        </mxCell>
        <mxCell id="vcYzzI4dRrPzJKDC5KhZ-60" value="" style="endArrow=open;html=1;rounded=0;exitX=0.5;exitY=1;exitDx=0;exitDy=0;entryX=0.5;entryY=0;entryDx=0;entryDy=0;endFill=0;" parent="1" source="vcYzzI4dRrPzJKDC5KhZ-12" target="vcYzzI4dRrPzJKDC5KhZ-67" edge="1">
          <mxGeometry width="50" height="50" relative="1" as="geometry">
            <mxPoint x="670" y="570" as="sourcePoint" />
            <mxPoint x="700" y="530" as="targetPoint" />
          </mxGeometry>
        </mxCell>
        <mxCell id="vcYzzI4dRrPzJKDC5KhZ-61" value="Close popup" style="rounded=1;whiteSpace=wrap;html=1;fillColor=#dae8fc;strokeColor=#6c8ebf;" parent="1" vertex="1">
          <mxGeometry x="640" y="620" width="120" height="60" as="geometry" />
        </mxCell>
        <mxCell id="vcYzzI4dRrPzJKDC5KhZ-63" value="" style="endArrow=none;html=1;rounded=0;exitX=0.5;exitY=1;exitDx=0;exitDy=0;" parent="1" source="vcYzzI4dRrPzJKDC5KhZ-61" edge="1">
          <mxGeometry width="50" height="50" relative="1" as="geometry">
            <mxPoint x="780" y="680" as="sourcePoint" />
            <mxPoint x="700" y="710" as="targetPoint" />
          </mxGeometry>
        </mxCell>
        <mxCell id="vcYzzI4dRrPzJKDC5KhZ-64" value="" style="endArrow=none;html=1;rounded=0;" parent="1" edge="1">
          <mxGeometry width="50" height="50" relative="1" as="geometry">
            <mxPoint x="630" y="710" as="sourcePoint" />
            <mxPoint x="700" y="710" as="targetPoint" />
          </mxGeometry>
        </mxCell>
        <mxCell id="vcYzzI4dRrPzJKDC5KhZ-65" value="" style="endArrow=open;html=1;rounded=0;entryX=0.967;entryY=0.14;entryDx=0;entryDy=0;entryPerimeter=0;endFill=0;" parent="1" target="vcYzzI4dRrPzJKDC5KhZ-24" edge="1">
          <mxGeometry width="50" height="50" relative="1" as="geometry">
            <mxPoint x="630" y="710" as="sourcePoint" />
            <mxPoint x="650" y="380" as="targetPoint" />
          </mxGeometry>
        </mxCell>
        <mxCell id="vcYzzI4dRrPzJKDC5KhZ-67" value="About Jabberpoint" style="rounded=1;whiteSpace=wrap;html=1;fillColor=#dae8fc;strokeColor=#6c8ebf;" parent="1" vertex="1">
          <mxGeometry x="640" y="525" width="120" height="60" as="geometry" />
        </mxCell>
        <mxCell id="vcYzzI4dRrPzJKDC5KhZ-69" value="" style="endArrow=open;html=1;rounded=0;exitX=0.5;exitY=1;exitDx=0;exitDy=0;entryX=0.5;entryY=0;entryDx=0;entryDy=0;endFill=0;" parent="1" source="vcYzzI4dRrPzJKDC5KhZ-67" target="vcYzzI4dRrPzJKDC5KhZ-61" edge="1">
          <mxGeometry width="50" height="50" relative="1" as="geometry">
            <mxPoint x="850" y="680" as="sourcePoint" />
            <mxPoint x="900" y="630" as="targetPoint" />
          </mxGeometry>
        </mxCell>
        <mxCell id="vcYzzI4dRrPzJKDC5KhZ-71" value="" style="endArrow=open;html=1;rounded=0;exitX=0.465;exitY=0.991;exitDx=0;exitDy=0;exitPerimeter=0;entryX=0.5;entryY=0;entryDx=0;entryDy=0;endFill=0;" parent="1" source="vcYzzI4dRrPzJKDC5KhZ-26" target="vcYzzI4dRrPzJKDC5KhZ-2" edge="1">
          <mxGeometry width="50" height="50" relative="1" as="geometry">
            <mxPoint x="-110" y="740" as="sourcePoint" />
            <mxPoint x="-124" y="770" as="targetPoint" />
          </mxGeometry>
        </mxCell>
        <mxCell id="5ek0-Ek1z--KeOMF1dmO-3" value="Choose file" style="rounded=1;whiteSpace=wrap;html=1;fillColor=#dae8fc;strokeColor=#6c8ebf;" parent="1" vertex="1">
          <mxGeometry x="-310" y="250" width="120" height="60" as="geometry" />
        </mxCell>
        <mxCell id="5ek0-Ek1z--KeOMF1dmO-4" value="" style="endArrow=open;html=1;rounded=0;exitX=0;exitY=0.5;exitDx=0;exitDy=0;entryX=0.91;entryY=0.133;entryDx=0;entryDy=0;entryPerimeter=0;endFill=0;" parent="1" source="5ek0-Ek1z--KeOMF1dmO-3" target="vcYzzI4dRrPzJKDC5KhZ-32" edge="1">
          <mxGeometry width="50" height="50" relative="1" as="geometry">
            <mxPoint x="-110" y="330" as="sourcePoint" />
            <mxPoint x="-140" y="290" as="targetPoint" />
          </mxGeometry>
        </mxCell>
        <mxCell id="5ek0-Ek1z--KeOMF1dmO-5" value="" style="endArrow=open;html=1;rounded=0;edgeStyle=orthogonalEdgeStyle;exitX=0.289;exitY=0.499;exitDx=0;exitDy=0;exitPerimeter=0;entryX=0.368;entryY=0.856;entryDx=0;entryDy=0;entryPerimeter=0;endFill=0;" parent="1" source="vcYzzI4dRrPzJKDC5KhZ-52" target="vcYzzI4dRrPzJKDC5KhZ-24" edge="1">
          <mxGeometry width="50" height="50" relative="1" as="geometry">
            <mxPoint x="-133" y="739.97" as="sourcePoint" />
            <mxPoint x="435" y="543.97" as="targetPoint" />
            <Array as="points">
              <mxPoint x="420" y="740" />
              <mxPoint x="210" y="740" />
              <mxPoint x="210" y="470" />
              <mxPoint x="211" y="470" />
            </Array>
          </mxGeometry>
        </mxCell>
      </root>
    </mxGraphModel>
  </diagram>
</mxfile>
